<mxfile host="localhost" modified="2020-05-12T15:39:31.466Z" agent="5.0 (Macintosh; Intel Mac OS X 10_15_4) AppleWebKit/537.36 (KHTML, like Gecko) Code/1.45.0 Chrome/78.0.3904.130 Electron/7.2.4 Safari/537.36" etag="qXaabVBYjTSEu3eDf4TK" version="13.0.9">
    <diagram id="t90tw3hEJwtajVjFZ1cy" name="Page-1">
        <mxGraphModel dx="371" dy="550" grid="1" gridSize="10" guides="1" tooltips="1" connect="1" arrows="1" fold="1" page="1" pageScale="1" pageWidth="850" pageHeight="1100" math="0" shadow="0">
            <root>
                <mxCell id="0"/>
                <mxCell id="1" parent="0"/>
                <mxCell id="4" value="" style="edgeStyle=orthogonalEdgeStyle;rounded=0;orthogonalLoop=1;jettySize=auto;html=1;endArrow=ERmany;endFill=0;endSize=9;startSize=11;" parent="1" source="2" target="3" edge="1">
                    <mxGeometry relative="1" as="geometry">
                        <Array as="points">
                            <mxPoint x="135" y="270"/>
                            <mxPoint x="135" y="270"/>
                        </Array>
                    </mxGeometry>
                </mxCell>
                <mxCell id="2" value="&lt;font color=&quot;#000033&quot;&gt;&lt;u&gt;Users&lt;/u&gt;&lt;br&gt;id&lt;br&gt;display_name&lt;br&gt;email&lt;br&gt;password_digest&lt;br&gt;created_at&lt;br&gt;update_at&lt;br&gt;is_active&lt;br&gt;&lt;/font&gt;" style="whiteSpace=wrap;html=1;aspect=fixed;fillColor=#dae8fc;strokeColor=#6c8ebf;" parent="1" vertex="1">
                    <mxGeometry x="50" y="100" width="150" height="150" as="geometry"/>
                </mxCell>
                <mxCell id="6" value="" style="edgeStyle=orthogonalEdgeStyle;rounded=0;orthogonalLoop=1;jettySize=auto;html=1;verticalAlign=middle;horizontal=1;endArrow=ERmany;endFill=0;startArrow=ERmany;startFill=0;endSize=11;startSize=11;" parent="1" source="3" target="5" edge="1">
                    <mxGeometry relative="1" as="geometry"/>
                </mxCell>
                <mxCell id="3" value="&lt;font color=&quot;#000033&quot;&gt;&lt;u&gt;Posts&lt;/u&gt;&lt;br&gt;id&lt;br&gt;poster_id (FRK - user_id)&lt;br&gt;title&lt;br&gt;description&lt;br&gt;img_url&lt;br&gt;price&lt;br&gt;quantity&lt;br&gt;contact_info&lt;br&gt;created_at&lt;br&gt;update_at&lt;br&gt;&lt;br&gt;&lt;/font&gt;" style="whiteSpace=wrap;html=1;aspect=fixed;fillColor=#dae8fc;strokeColor=#6c8ebf;" parent="1" vertex="1">
                    <mxGeometry x="50" y="310" width="170" height="170" as="geometry"/>
                </mxCell>
                <mxCell id="5" value="&lt;font color=&quot;#000033&quot;&gt;&lt;u&gt;Tags&lt;/u&gt;&lt;br&gt;id&lt;br&gt;name&lt;br&gt;created_at&lt;br&gt;update_at&lt;br&gt;&lt;br&gt;&lt;/font&gt;" style="whiteSpace=wrap;html=1;aspect=fixed;fillColor=#dae8fc;strokeColor=#6c8ebf;" parent="1" vertex="1">
                    <mxGeometry x="360" y="330" width="130" height="130" as="geometry"/>
                </mxCell>
                <mxCell id="10" value="" style="edgeStyle=orthogonalEdgeStyle;rounded=0;orthogonalLoop=1;jettySize=auto;html=1;startArrow=ERmany;startFill=0;endArrow=ERmany;endFill=0;endSize=11;startSize=11;" parent="1" source="7" target="9" edge="1">
                    <mxGeometry relative="1" as="geometry"/>
                </mxCell>
                <mxCell id="7" value="&lt;font color=&quot;#000033&quot;&gt;&lt;u&gt;Conversation&lt;/u&gt;&lt;br&gt;id&lt;br&gt;sender_id&lt;br&gt;post_id&lt;br&gt;created_at&lt;br&gt;update_at&lt;br&gt;&lt;br&gt;&lt;/font&gt;" style="whiteSpace=wrap;html=1;aspect=fixed;fillColor=#d5e8d4;strokeColor=#82b366;" parent="1" vertex="1">
                    <mxGeometry x="260" y="100" width="130" height="130" as="geometry"/>
                </mxCell>
                <mxCell id="9" value="&lt;font color=&quot;#000033&quot;&gt;&lt;u&gt;Message&lt;/u&gt;&lt;br&gt;id&lt;br&gt;sender_id&lt;br&gt;conversation_id&lt;br&gt;message_contents&lt;br&gt;created_at&lt;br&gt;update_at&lt;br&gt;&lt;br&gt;&lt;/font&gt;" style="whiteSpace=wrap;html=1;aspect=fixed;fillColor=#d5e8d4;strokeColor=#82b366;" parent="1" vertex="1">
                    <mxGeometry x="470" y="100" width="130" height="130" as="geometry"/>
                </mxCell>
                <mxCell id="11" value="" style="endArrow=ERmany;html=1;endFill=0;endSize=11;" parent="1" source="3" target="7" edge="1">
                    <mxGeometry width="50" height="50" relative="1" as="geometry">
                        <mxPoint x="220" y="290" as="sourcePoint"/>
                        <mxPoint x="277" y="234" as="targetPoint"/>
                        <Array as="points">
                            <mxPoint x="250" y="310"/>
                            <mxPoint x="280" y="250"/>
                        </Array>
                    </mxGeometry>
                </mxCell>
                <mxCell id="12" value="&lt;font color=&quot;#000033&quot;&gt;&lt;u&gt;PostsTags&lt;/u&gt;&lt;br&gt;post_id&lt;br&gt;tag_id&lt;br&gt;&lt;/font&gt;" style="whiteSpace=wrap;html=1;aspect=fixed;fillColor=#dae8fc;strokeColor=#6c8ebf;" parent="1" vertex="1">
                    <mxGeometry x="250" y="355" width="80" height="80" as="geometry"/>
                </mxCell>
            </root>
        </mxGraphModel>
    </diagram>
</mxfile>